<svg width="151" height="47" viewBox="0 0 151 47" fill="none" xmlns="http://www.w3.org/2000/svg">
<path d="M23.3972 44.4541C35.0269 44.4541 44.4546 35.0264 44.4546 23.3967C44.4546 11.7671 35.0269 2.33936 23.3972 2.33936C11.7676 2.33936 2.33984 11.7671 2.33984 23.3967C2.33984 35.0264 11.7676 44.4541 23.3972 44.4541Z" stroke="#343434" stroke-width="1.87177"/>
<path d="M11.6987 14.0381H30.4164H11.6987ZM21.0576 14.0381V32.7558V14.0381Z" fill="#343434"/>
<path d="M11.6987 14.0381H30.4164M21.0576 14.0381V32.7558" stroke="#343434" stroke-width="2.80765" stroke-linecap="round"/>
<path d="M25.7368 22.4609H35.0956H25.7368ZM30.4162 22.4609V34.1595V22.4609Z" fill="#343434"/>
<path d="M25.7368 22.4609H35.0956M30.4162 22.4609V34.1595" stroke="#343434" stroke-width="2.80765" stroke-linecap="round"/>
<path d="M150 29.2637C150 30.077 149.714 30.7693 149.143 31.3403C148.59 31.8941 147.915 32.171 147.119 32.171H143.51C142.714 32.171 142.031 31.8941 141.46 31.3403C140.889 30.7693 140.603 30.077 140.603 29.2637V28.1994C140.603 27.8706 140.716 27.5937 140.94 27.3687C141.183 27.1264 141.468 27.0053 141.797 27.0053H142.524C142.853 27.0053 143.13 27.1264 143.355 27.3687C143.58 27.5937 143.692 27.8706 143.692 28.1994V28.7705C143.692 28.9954 143.813 29.1079 144.055 29.1079H146.573C146.66 29.1079 146.738 29.0733 146.807 29.0041C146.894 28.9349 146.937 28.857 146.937 28.7705V27.81C146.937 27.6716 146.868 27.5764 146.729 27.5245L142.965 26.3304C142.273 26.0881 141.702 25.6728 141.252 25.0844C140.819 24.496 140.603 23.8297 140.603 23.0856V21.6319C140.603 21.0955 140.733 20.6109 140.992 20.1783C141.269 19.7456 141.624 19.3995 142.057 19.1399C142.489 18.8631 142.974 18.7246 143.51 18.7246H147.119C147.655 18.7246 148.14 18.8631 148.572 19.1399C149.005 19.3995 149.351 19.7456 149.611 20.1783C149.87 20.6109 150 21.0955 150 21.6319V22.6703C150 22.9991 149.887 23.2846 149.662 23.5269C149.437 23.7519 149.161 23.8644 148.832 23.8644H148.105C147.776 23.8644 147.499 23.7519 147.274 23.5269C147.049 23.2846 146.937 22.9991 146.937 22.6703V22.1771C146.937 22.0732 146.894 21.9867 146.807 21.9175C146.738 21.8483 146.66 21.8136 146.573 21.8136H144.055C143.813 21.8136 143.692 21.9348 143.692 22.1771V23.0856C143.692 23.2587 143.761 23.3625 143.9 23.3971L147.664 24.5912C148.373 24.8162 148.936 25.2228 149.351 25.8112C149.784 26.3996 150 27.0659 150 27.81V29.2637Z" fill="#343434"/>
<path d="M147.119 18.6074C147.676 18.6074 148.183 18.7516 148.635 19.041H148.634C149.082 19.3103 149.441 19.6698 149.71 20.1182C149.982 20.5701 150.117 21.0756 150.117 21.6318V22.6699C150.117 23.0283 149.993 23.3427 149.749 23.6064L149.746 23.6094C149.498 23.8571 149.19 23.9814 148.832 23.9814H148.105C147.746 23.9814 147.44 23.8571 147.192 23.6094L147.189 23.6064C146.944 23.3427 146.82 23.0284 146.82 22.6699V22.1768C146.82 22.1113 146.795 22.0574 146.734 22.0088L146.724 22.001L146.807 21.917L146.724 22C146.674 21.9498 146.625 21.9307 146.574 21.9307H144.055C143.952 21.9307 143.897 21.9564 143.866 21.9873C143.835 22.0182 143.809 22.0738 143.809 22.1768V23.0859C143.809 23.1578 143.824 23.202 143.841 23.2285C143.849 23.2405 143.86 23.2514 143.874 23.2607L143.928 23.2832L143.935 23.2852L147.699 24.4795C148.432 24.7119 149.016 25.1342 149.447 25.7441H149.446C149.893 26.3525 150.117 27.0419 150.117 27.8096V29.2637C150.117 30.1077 149.819 30.8297 149.226 31.4229C148.65 31.9989 147.945 32.2881 147.119 32.2881H143.51C142.684 32.2881 141.971 31.9995 141.378 31.4248L141.376 31.4229C140.783 30.8297 140.486 30.1077 140.486 29.2637V28.1992C140.486 27.8406 140.61 27.5338 140.858 27.2861C141.121 27.023 141.436 26.8887 141.797 26.8887H142.524C142.884 26.8887 143.191 27.0223 143.437 27.2861L143.525 27.3818C143.714 27.6113 143.809 27.8856 143.809 28.1992V28.7705C143.809 28.8626 143.834 28.9105 143.863 28.9375C143.893 28.966 143.95 28.9912 144.055 28.9912H146.574C146.625 28.9911 146.674 28.9712 146.724 28.9209L146.734 28.9121C146.801 28.8584 146.82 28.8118 146.82 28.7705V27.8096C146.82 27.7608 146.808 27.7273 146.791 27.7031C146.772 27.6784 146.741 27.6537 146.688 27.6338H146.687L142.93 26.4424L142.926 26.4404C142.212 26.1905 141.622 25.7615 141.159 25.1553L141.158 25.1533C140.71 24.5446 140.486 23.8543 140.486 23.0859V21.6318C140.486 21.0756 140.621 20.5701 140.892 20.1182L140.894 20.1152C141.18 19.6686 141.546 19.3099 141.994 19.041L142.166 18.9395C142.573 18.7179 143.022 18.6074 143.51 18.6074H147.119Z" stroke="white" stroke-opacity="0.2" stroke-width="0.233971"/>
<path d="M138.491 24.4614C138.491 24.9806 138.361 25.4651 138.102 25.9151C137.842 26.3477 137.496 26.7025 137.063 26.9793C136.631 27.2389 136.146 27.3687 135.61 27.3687H132.547C132.46 27.3687 132.374 27.4033 132.287 27.4726C132.218 27.5245 132.183 27.5937 132.183 27.6802V28.7705C132.183 28.857 132.218 28.9349 132.287 29.0041C132.374 29.0733 132.46 29.1079 132.547 29.1079H135.61C135.939 29.1079 136.215 29.2204 136.44 29.4454C136.683 29.6704 136.804 29.9559 136.804 30.302V30.9769C136.804 31.3057 136.683 31.5913 136.44 31.8336C136.215 32.0585 135.939 32.171 135.61 32.171H132.002C131.206 32.171 130.522 31.8941 129.951 31.3403C129.38 30.7693 129.094 30.077 129.094 29.2637V21.6319C129.094 21.0955 129.224 20.6109 129.484 20.1783C129.76 19.7456 130.115 19.3995 130.548 19.1399C130.981 18.8631 131.465 18.7246 132.002 18.7246H135.61C136.146 18.7246 136.631 18.8631 137.063 19.1399C137.496 19.3995 137.842 19.7456 138.102 20.1783C138.361 20.6109 138.491 21.0955 138.491 21.6319V24.4614ZM135.428 23.9422V22.1771C135.428 22.0732 135.385 21.9867 135.298 21.9175C135.229 21.8483 135.151 21.8136 135.065 21.8136H132.547C132.46 21.8136 132.374 21.8483 132.287 21.9175C132.218 21.9867 132.183 22.0732 132.183 22.1771V23.9422C132.183 24.0114 132.218 24.0807 132.287 24.1499C132.374 24.2191 132.46 24.2537 132.547 24.2537H135.065C135.151 24.2537 135.229 24.2191 135.298 24.1499C135.385 24.0807 135.428 24.0114 135.428 23.9422Z" fill="#343434"/>
<path d="M135.61 18.6074C136.168 18.6074 136.674 18.7516 137.126 19.041H137.125C137.574 19.3103 137.933 19.6698 138.202 20.1182C138.473 20.5701 138.608 21.0756 138.608 21.6318V24.4609C138.608 25.0006 138.472 25.5059 138.203 25.9736L138.202 25.9756C137.933 26.4238 137.574 26.7918 137.126 27.0781L137.124 27.0801C136.672 27.3512 136.166 27.4853 135.61 27.4854H132.546C132.493 27.4854 132.431 27.5062 132.36 27.5635L132.357 27.5664C132.317 27.5962 132.3 27.6311 132.3 27.6807V28.7705C132.3 28.8207 132.319 28.8687 132.367 28.918C132.435 28.9713 132.495 28.9911 132.546 28.9912H135.61C135.967 28.9912 136.273 29.1138 136.52 29.3594C136.787 29.6076 136.92 29.9249 136.92 30.3018V30.9766C136.92 31.3378 136.786 31.6528 136.523 31.916C136.275 32.1637 135.968 32.2881 135.61 32.2881H132.001C131.175 32.2881 130.462 31.9995 129.87 31.4248L129.868 31.4229C129.275 30.8297 128.977 30.1077 128.977 29.2637V21.6318C128.977 21.0756 129.112 20.5701 129.383 20.1182L129.385 20.1152C129.671 19.6686 130.038 19.3099 130.485 19.041L130.657 18.9395C131.064 18.7179 131.513 18.6074 132.001 18.6074H135.61ZM135.215 22C135.165 21.9498 135.116 21.9307 135.065 21.9307H132.546C132.495 21.9307 132.435 21.9501 132.366 22.0039C132.322 22.049 132.3 22.1041 132.3 22.1768V23.9424C132.3 23.9689 132.313 24.0084 132.366 24.0625C132.435 24.1166 132.495 24.1366 132.546 24.1367H135.065C135.116 24.1366 135.165 24.1176 135.215 24.0674L135.225 24.0576C135.3 23.9977 135.311 23.9592 135.311 23.9424V22.1768C135.311 22.1113 135.286 22.0574 135.225 22.0088L135.215 22.001L135.298 21.917L135.215 22Z" stroke="white" stroke-opacity="0.2" stroke-width="0.233971"/>
<path d="M127.05 30.9768C127.05 31.3056 126.929 31.5911 126.687 31.8334C126.462 32.0584 126.185 32.1709 125.856 32.1709H125.207C124.411 32.1709 123.728 31.894 123.156 31.3402C122.585 30.7691 122.3 30.0769 122.3 29.2635V15.8171C122.3 15.471 122.412 15.1855 122.637 14.9605C122.88 14.7355 123.165 14.623 123.494 14.623H124.221C124.55 14.623 124.826 14.7355 125.051 14.9605C125.294 15.1855 125.415 15.471 125.415 15.8171V28.7703C125.415 28.9953 125.519 29.1078 125.726 29.1078H125.856C126.185 29.1078 126.462 29.2203 126.687 29.4452C126.929 29.6702 127.05 29.9557 127.05 30.3019V30.9768Z" fill="#343434"/>
<path d="M124.221 14.5059C124.578 14.5059 124.884 14.6293 125.131 14.875L125.225 14.9707C125.429 15.2029 125.532 15.4874 125.532 15.8174V28.7705C125.532 28.8671 125.555 28.918 125.579 28.9443C125.602 28.9688 125.644 28.9912 125.727 28.9912H125.856C126.214 28.9913 126.519 29.1137 126.767 29.3594L126.86 29.4561C127.065 29.6882 127.167 29.9721 127.167 30.3018V30.9766C127.167 31.3378 127.033 31.6528 126.77 31.916C126.522 32.1637 126.215 32.288 125.856 32.2881H125.207C124.381 32.2881 123.668 31.9988 123.075 31.4238L123.073 31.4229C122.48 30.8297 122.183 30.1076 122.183 29.2637V15.8174C122.183 15.4433 122.306 15.1269 122.555 14.8779L122.558 14.875L122.659 14.7891C122.901 14.6012 123.18 14.5059 123.494 14.5059H124.221Z" stroke="white" stroke-opacity="0.2" stroke-width="0.233971"/>
<path d="M120.214 29.2637C120.214 30.077 119.928 30.7693 119.357 31.3403C118.803 31.8941 118.128 32.171 117.332 32.171H113.724C112.928 32.171 112.245 31.8941 111.674 31.3403C111.102 30.7693 110.817 30.077 110.817 29.2637V26.4342C110.817 25.8978 110.947 25.4219 111.206 25.0065C111.483 24.5739 111.838 24.2278 112.271 23.9682C112.703 23.7086 113.188 23.5788 113.724 23.5788H116.787C116.874 23.5788 116.952 23.5442 117.021 23.475C117.107 23.4058 117.151 23.3192 117.151 23.2154V22.1771C117.151 22.0732 117.107 21.9867 117.021 21.9175C116.952 21.8483 116.874 21.8136 116.787 21.8136H113.724C113.395 21.8136 113.11 21.7012 112.868 21.4762C112.643 21.2512 112.53 20.9743 112.53 20.6455V19.9447C112.53 19.5985 112.643 19.313 112.868 19.088C113.11 18.8457 113.395 18.7246 113.724 18.7246H117.332C117.869 18.7246 118.353 18.8544 118.786 19.114C119.219 19.3736 119.565 19.7283 119.824 20.1783C120.084 20.6109 120.214 21.0955 120.214 21.6319V29.2637ZM117.151 28.7705V26.9793C117.151 26.8928 117.107 26.8149 117.021 26.7457C116.952 26.6765 116.874 26.6419 116.787 26.6419H114.269C114.183 26.6419 114.096 26.6765 114.01 26.7457C113.941 26.8149 113.906 26.8928 113.906 26.9793V28.7705C113.906 28.857 113.941 28.9349 114.01 29.0041C114.096 29.0733 114.183 29.1079 114.269 29.1079H116.787C116.874 29.1079 116.952 29.0733 117.021 29.0041C117.107 28.9349 117.151 28.857 117.151 28.7705Z" fill="#343434"/>
<path d="M117.333 18.6074C117.889 18.6074 118.394 18.7425 118.846 19.0137C119.296 19.2834 119.655 19.6524 119.924 20.1182L120.02 20.29C120.228 20.6972 120.331 21.1451 120.331 21.6318V29.2637C120.331 30.1077 120.033 30.8297 119.44 31.4229C118.864 31.9989 118.159 32.2881 117.333 32.2881H113.724C112.898 32.2881 112.185 31.9995 111.592 31.4248L111.59 31.4229C110.997 30.8297 110.7 30.1076 110.7 29.2637V26.4346C110.7 25.8783 110.835 25.38 111.107 24.9443L111.108 24.9434C111.394 24.4959 111.762 24.1372 112.21 23.8682C112.662 23.597 113.168 23.4619 113.724 23.4619H116.788C116.839 23.4618 116.888 23.4427 116.938 23.3926L116.948 23.3828C117.008 23.3343 117.034 23.2811 117.034 23.2158V22.1768C117.034 22.1113 117.009 22.0574 116.948 22.0088L116.938 22.001L117.021 21.917L116.938 22C116.888 21.9498 116.839 21.9307 116.788 21.9307H113.724C113.366 21.9306 113.051 21.8064 112.788 21.5615L112.785 21.5586C112.537 21.3109 112.414 21.0041 112.414 20.6455V19.9443C112.414 19.5703 112.536 19.2538 112.785 19.0049C113.048 18.7418 113.363 18.6074 113.724 18.6074H117.333ZM116.938 26.8281C116.888 26.778 116.839 26.7589 116.788 26.7588H114.269C114.217 26.7589 114.157 26.7779 114.087 26.832C114.04 26.8809 114.023 26.9296 114.023 26.9795V28.7705C114.023 28.8207 114.041 28.8687 114.089 28.918C114.158 28.9713 114.217 28.9911 114.269 28.9912H116.788C116.839 28.9911 116.888 28.9712 116.938 28.9209L116.948 28.9121C117.015 28.8584 117.034 28.8118 117.034 28.7705V26.9795C117.034 26.9381 117.015 26.8907 116.948 26.8369L116.938 26.8291L117.021 26.7461L116.938 26.8281Z" stroke="white" stroke-opacity="0.2" stroke-width="0.233971"/>
<path d="M110.809 16.518C110.809 16.8468 110.697 17.1323 110.472 17.3746C110.247 17.5996 109.961 17.7121 109.615 17.7121H106.89C106.665 17.7121 106.552 17.8246 106.552 18.0495V30.9768C106.552 31.3056 106.431 31.5911 106.189 31.8334C105.964 32.0584 105.687 32.1709 105.358 32.1709H104.683C104.354 32.1709 104.069 32.0584 103.827 31.8334C103.602 31.5911 103.489 31.3056 103.489 30.9768V18.0495C103.489 17.8246 103.377 17.7121 103.152 17.7121H100.4C100.071 17.7121 99.7858 17.5996 99.5435 17.3746C99.3185 17.1323 99.2061 16.8468 99.2061 16.518V15.8171C99.2061 15.471 99.3185 15.1855 99.5435 14.9605C99.7858 14.7355 100.071 14.623 100.4 14.623H109.615C109.961 14.623 110.247 14.7355 110.472 14.9605C110.697 15.1855 110.809 15.471 110.809 15.8171V16.518Z" fill="#343434"/>
<path d="M109.615 14.5059C109.989 14.5059 110.306 14.629 110.555 14.8779C110.804 15.1269 110.927 15.4433 110.927 15.8174V16.5176C110.927 16.8761 110.803 17.1903 110.558 17.4541L110.555 17.457C110.306 17.706 109.989 17.8291 109.615 17.8291H106.89C106.796 17.8291 106.746 17.8525 106.72 17.8789C106.693 17.9055 106.669 17.9554 106.669 18.0498V30.9766C106.669 31.3378 106.535 31.6528 106.271 31.916C106.024 32.1637 105.717 32.288 105.358 32.2881H104.684C104.325 32.2881 104.011 32.1639 103.747 31.9189L103.74 31.9131V31.9121C103.496 31.6485 103.372 31.3347 103.372 30.9766V18.0498C103.372 17.9554 103.349 17.9055 103.322 17.8789C103.296 17.8524 103.246 17.8291 103.151 17.8291H100.4C100.042 17.8291 99.7276 17.7049 99.4639 17.46L99.458 17.4541C99.2131 17.1903 99.0889 16.8761 99.0889 16.5176V15.8174C99.0889 15.4433 99.212 15.1269 99.4609 14.8779L99.4639 14.875L99.5654 14.7891C99.8071 14.6012 100.087 14.5059 100.4 14.5059H109.615Z" stroke="white" stroke-opacity="0.2" stroke-width="0.233971"/>
<path d="M94.413 30.9768C94.413 31.3056 94.3005 31.5911 94.0756 31.8334C93.8506 32.0584 93.5737 32.1709 93.2449 32.1709H92.5181C92.1893 32.1709 91.9124 32.0584 91.6874 31.8334C91.4624 31.5911 91.3499 31.3056 91.3499 30.9768V22.1769C91.3499 22.0731 91.3067 21.9866 91.2201 21.9173C91.1509 21.8481 91.0731 21.8135 90.9865 21.8135H88.4686C88.382 21.8135 88.2955 21.8481 88.209 21.9173C88.1398 21.9866 88.1052 22.0731 88.1052 22.1769V30.9768C88.1052 31.3056 87.9927 31.5911 87.7677 31.8334C87.5427 32.0584 87.2658 32.1709 86.937 32.1709H86.2102C85.8814 32.1709 85.5958 32.0584 85.3536 31.8334C85.1286 31.5911 85.0161 31.3056 85.0161 30.9768V15.8171C85.0161 15.471 85.1286 15.1855 85.3536 14.9605C85.5958 14.7355 85.8814 14.623 86.2102 14.623H86.937C87.2658 14.623 87.5427 14.7355 87.7677 14.9605C87.9927 15.1855 88.1052 15.471 88.1052 15.8171V18.413C88.1052 18.4995 88.1398 18.5774 88.209 18.6466C88.2955 18.6985 88.382 18.7245 88.4686 18.7245H91.5316C92.0681 18.7245 92.5527 18.8543 92.9853 19.1138C93.4179 19.3734 93.7641 19.7282 94.0236 20.1781C94.2832 20.6108 94.413 21.0953 94.413 21.6318V30.9768Z" fill="#343434"/>
<path d="M86.937 14.5059C87.2956 14.5059 87.6024 14.6303 87.8501 14.8779C88.099 15.1269 88.2222 15.4433 88.2222 15.8174V18.4131C88.2222 18.4602 88.2391 18.5047 88.2808 18.5508C88.348 18.5891 88.4094 18.6074 88.4683 18.6074H91.5317C92.088 18.6074 92.5935 18.7425 93.0454 19.0137C93.495 19.2835 93.8544 19.6524 94.1235 20.1182L94.2192 20.29C94.4267 20.6972 94.5298 21.1451 94.5298 21.6318V30.9766C94.5298 31.335 94.4065 31.6493 94.1616 31.9131L94.1587 31.916C93.911 32.1637 93.6033 32.2881 93.2446 32.2881H92.5181C92.1594 32.2881 91.8527 32.1637 91.605 31.916L91.6021 31.9131C91.3571 31.6493 91.2329 31.3351 91.2329 30.9766V22.1768C91.2329 22.1112 91.2078 22.0575 91.147 22.0088L91.1372 22.001L91.2202 21.917L91.1372 22C91.0869 21.9498 91.038 21.9307 90.9868 21.9307H88.4683C88.4163 21.9307 88.356 21.9497 88.2866 22.0039C88.2437 22.0489 88.2222 22.1044 88.2222 22.1768V30.9766C88.2222 31.3351 88.098 31.6493 87.853 31.9131L87.8501 31.916C87.6024 32.1637 87.2956 32.2881 86.937 32.2881H86.2104C85.8519 32.2881 85.5377 32.1639 85.2739 31.9189L85.2681 31.9131C85.0231 31.6493 84.8989 31.3351 84.8989 30.9766V15.8174C84.8989 15.4433 85.022 15.1269 85.271 14.8779L85.2739 14.875L85.3755 14.7891C85.6172 14.6013 85.8967 14.5059 86.2104 14.5059H86.937Z" stroke="white" stroke-opacity="0.2" stroke-width="0.233971"/>
<path d="M82.9042 29.2637C82.9042 30.077 82.6187 30.7693 82.0476 31.3403C81.4938 31.8941 80.8189 32.171 80.0229 32.171H76.4147C75.6186 32.171 74.935 31.8941 74.364 31.3403C73.7929 30.7693 73.5073 30.077 73.5073 29.2637V21.6319C73.5073 21.0955 73.6371 20.6109 73.8967 20.1783C74.1736 19.7283 74.5284 19.3736 74.961 19.114C75.3936 18.8544 75.8782 18.7246 76.4147 18.7246H80.0229C80.5593 18.7246 81.0439 18.8544 81.4765 19.114C81.9092 19.3736 82.2553 19.7283 82.5149 20.1783C82.7744 20.6109 82.9042 21.0955 82.9042 21.6319V22.9818C82.9042 23.3106 82.7917 23.5961 82.5668 23.8384C82.3418 24.0634 82.0649 24.1759 81.7361 24.1759H81.0093C80.6805 24.1759 80.4036 24.0634 80.1786 23.8384C79.9536 23.5961 79.8412 23.3106 79.8412 22.9818V22.1771C79.8412 22.0732 79.7979 21.9867 79.7114 21.9175C79.6421 21.8483 79.5643 21.8136 79.4777 21.8136H76.9598C76.8733 21.8136 76.7867 21.8483 76.7002 21.9175C76.631 21.9867 76.5964 22.0732 76.5964 22.1771V28.7705C76.5964 28.857 76.631 28.9349 76.7002 29.0041C76.7867 29.0733 76.8733 29.1079 76.9598 29.1079H79.4777C79.5643 29.1079 79.6421 29.0733 79.7114 29.0041C79.7979 28.9349 79.8412 28.857 79.8412 28.7705V27.9658C79.8412 27.637 79.9536 27.3601 80.1786 27.1351C80.4036 26.8928 80.6805 26.7717 81.0093 26.7717H81.7361C82.0649 26.7717 82.3418 26.8928 82.5668 27.1351C82.7917 27.3601 82.9042 27.637 82.9042 27.9658V29.2637Z" fill="#343434"/>
<path d="M80.0229 18.6074C80.5792 18.6074 81.0847 18.7425 81.5366 19.0137C81.9862 19.2834 82.3457 19.6524 82.6147 20.1182L82.7104 20.29C82.9179 20.6972 83.021 21.1451 83.021 21.6318V22.9814C83.021 23.3399 82.8977 23.6542 82.6528 23.918L82.6499 23.9209C82.4022 24.1686 82.0945 24.293 81.7358 24.293H81.0093C80.6506 24.293 80.3439 24.1686 80.0962 23.9209L80.0933 23.918C79.8483 23.6542 79.7241 23.34 79.7241 22.9814V22.1768C79.724 22.1113 79.699 22.0575 79.6382 22.0088L79.6284 22.001L79.7114 21.917L79.6284 22C79.5782 21.9498 79.5292 21.9307 79.478 21.9307H76.9595C76.9077 21.9307 76.8479 21.9501 76.7788 22.0039C76.7356 22.049 76.7134 22.1041 76.7134 22.1768V28.7705C76.7134 28.8207 76.7318 28.8687 76.7798 28.918C76.8485 28.9713 76.9079 28.9911 76.9595 28.9912H79.478C79.5292 28.9911 79.5781 28.9712 79.6284 28.9209L79.6382 28.9121C79.7052 28.8584 79.7241 28.8118 79.7241 28.7705V27.9658C79.7241 27.6072 79.8485 27.3004 80.0962 27.0527C80.3427 26.7888 80.6492 26.6543 81.0093 26.6543H81.7358C82.0961 26.6543 82.4034 26.7886 82.6499 27.0527L82.7368 27.1484C82.9263 27.378 83.021 27.6521 83.021 27.9658V29.2637C83.021 30.1077 82.7235 30.8297 82.1304 31.4229C81.5543 31.9989 80.8494 32.2881 80.0229 32.2881H76.4146C75.5883 32.2881 74.8755 31.9995 74.2827 31.4248L74.2808 31.4229C73.6878 30.8297 73.3901 30.1076 73.3901 29.2637V21.6318C73.3902 21.0756 73.5252 20.5701 73.7964 20.1182L73.7974 20.1172C74.0836 19.652 74.4514 19.2834 74.9009 19.0137C75.3528 18.7425 75.8583 18.6074 76.4146 18.6074H80.0229Z" stroke="white" stroke-opacity="0.2" stroke-width="0.233971"/>
<path d="M71.3954 24.4614C71.3954 24.9806 71.2656 25.4651 71.0061 25.9151C70.7465 26.3477 70.4004 26.7025 69.9677 26.9793C69.5351 27.2389 69.0505 27.3687 68.5141 27.3687H65.451C65.3645 27.3687 65.2779 27.4033 65.1914 27.4726C65.1222 27.5245 65.0876 27.5937 65.0876 27.6802V28.7705C65.0876 28.857 65.1222 28.9349 65.1914 29.0041C65.2779 29.0733 65.3645 29.1079 65.451 29.1079H68.5141C68.8429 29.1079 69.1198 29.2204 69.3447 29.4454C69.587 29.6704 69.7081 29.9559 69.7081 30.302V30.9769C69.7081 31.3057 69.587 31.5913 69.3447 31.8336C69.1198 32.0585 68.8429 32.171 68.5141 32.171H64.9059C64.1098 32.171 63.4262 31.8941 62.8552 31.3403C62.2841 30.7693 61.9985 30.077 61.9985 29.2637V21.6319C61.9985 21.0955 62.1283 20.6109 62.3879 20.1783C62.6648 19.7456 63.0196 19.3995 63.4522 19.1399C63.8848 18.8631 64.3694 18.7246 64.9059 18.7246H68.5141C69.0505 18.7246 69.5351 18.8631 69.9677 19.1399C70.4004 19.3995 70.7465 19.7456 71.0061 20.1783C71.2656 20.6109 71.3954 21.0955 71.3954 21.6319V24.4614ZM68.3324 23.9422V22.1771C68.3324 22.0732 68.2891 21.9867 68.2026 21.9175C68.1333 21.8483 68.0555 21.8136 67.9689 21.8136H65.451C65.3645 21.8136 65.2779 21.8483 65.1914 21.9175C65.1222 21.9867 65.0876 22.0732 65.0876 22.1771V23.9422C65.0876 24.0114 65.1222 24.0807 65.1914 24.1499C65.2779 24.2191 65.3645 24.2537 65.451 24.2537H67.9689C68.0555 24.2537 68.1333 24.2191 68.2026 24.1499C68.2891 24.0807 68.3324 24.0114 68.3324 23.9422Z" fill="#343434"/>
<path d="M68.5142 18.6074C69.0718 18.6074 69.5785 18.7516 70.0308 19.041H70.0298C70.4779 19.3103 70.8369 19.6698 71.106 20.1182C71.3771 20.5701 71.5122 21.0756 71.5122 21.6318V24.4609C71.5122 25.0006 71.3768 25.5059 71.1069 25.9736L71.106 25.9756C70.8369 26.4238 70.4782 26.7918 70.0308 27.0781L70.0278 27.0801C69.5759 27.3512 69.0703 27.4853 68.5142 27.4854H65.4507C65.3975 27.4854 65.3357 27.5062 65.2642 27.5635L65.2612 27.5664C65.2217 27.5962 65.2046 27.6311 65.2046 27.6807V28.7705C65.2046 28.8207 65.223 28.8687 65.271 28.918C65.3398 28.9713 65.3991 28.9911 65.4507 28.9912H68.5142C68.8712 28.9912 69.1772 29.1138 69.4243 29.3594C69.6916 29.6076 69.8246 29.9249 69.8247 30.3018V30.9766C69.8247 31.3378 69.6904 31.6528 69.4272 31.916C69.1795 32.1637 68.8728 32.2881 68.5142 32.2881H64.9058C64.0795 32.2881 63.3668 31.9995 62.7739 31.4248L62.772 31.4229C62.179 30.8297 61.8813 30.1076 61.8813 29.2637V21.6318C61.8814 21.0756 62.0164 20.5701 62.2876 20.1182L62.2896 20.1152C62.5754 19.6686 62.942 19.3099 63.3892 19.041L63.561 18.9395C63.9687 18.7179 64.4177 18.6074 64.9058 18.6074H68.5142ZM68.1196 22C68.0694 21.9498 68.0204 21.9307 67.9692 21.9307H65.4507C65.3989 21.9307 65.3391 21.9501 65.27 22.0039C65.2268 22.049 65.2047 22.1041 65.2046 22.1768V23.9424C65.2046 23.9689 65.2173 24.0084 65.27 24.0625C65.3393 24.1166 65.3988 24.1366 65.4507 24.1367H67.9692C68.0204 24.1366 68.0694 24.1176 68.1196 24.0674L68.1294 24.0576C68.2042 23.9977 68.2153 23.9592 68.2153 23.9424V22.1768C68.2153 22.1113 68.1902 22.0575 68.1294 22.0088L68.1196 22.001L68.2026 21.917L68.1196 22Z" stroke="white" stroke-opacity="0.2" stroke-width="0.233971"/>
<path d="M61.2054 16.518C61.2054 16.8468 61.0929 17.1323 60.868 17.3746C60.643 17.5996 60.3574 17.7121 60.0113 17.7121H57.2857C57.0607 17.7121 56.9482 17.8246 56.9482 18.0495V30.9768C56.9482 31.3056 56.8271 31.5911 56.5848 31.8334C56.3599 32.0584 56.083 32.1709 55.7542 32.1709H55.0793C54.7504 32.1709 54.4649 32.0584 54.2226 31.8334C53.9977 31.5911 53.8852 31.3056 53.8852 30.9768V18.0495C53.8852 17.8246 53.7727 17.7121 53.5477 17.7121H50.7961C50.4673 17.7121 50.1818 17.5996 49.9395 17.3746C49.7145 17.1323 49.6021 16.8468 49.6021 16.518V15.8171C49.6021 15.471 49.7145 15.1855 49.9395 14.9605C50.1818 14.7355 50.4673 14.623 50.7961 14.623H60.0113C60.3574 14.623 60.643 14.7355 60.868 14.9605C61.0929 15.1855 61.2054 15.471 61.2054 15.8171V16.518Z" fill="#343434"/>
<path d="M60.0112 14.5059C60.3854 14.5059 60.7017 14.629 60.9507 14.8779C61.1996 15.1269 61.3228 15.4433 61.3228 15.8174V16.5176C61.3228 16.8761 61.1985 17.1903 60.9536 17.4541L60.9507 17.457C60.7017 17.706 60.3854 17.8291 60.0112 17.8291H57.2856C57.1916 17.8291 57.1424 17.8525 57.1157 17.8789C57.0892 17.9055 57.0649 17.9554 57.0649 18.0498V30.9766C57.0649 31.3378 56.9307 31.6528 56.6675 31.916C56.4198 32.1637 56.113 32.288 55.7544 32.2881H55.0796C54.7211 32.2881 54.4068 32.1639 54.1431 31.9189L54.1362 31.9131V31.9121C53.8918 31.6485 53.7681 31.3347 53.7681 30.9766V18.0498C53.7681 17.9554 53.7448 17.9055 53.7183 17.8789C53.6917 17.8524 53.6418 17.8291 53.5474 17.8291H50.7964C50.4379 17.8291 50.1236 17.7049 49.8599 17.46L49.854 17.4541C49.6091 17.1903 49.4849 16.8761 49.4849 16.5176V15.8174C49.4849 15.4433 49.608 15.1269 49.8569 14.8779L49.8599 14.875L49.9614 14.7891C50.2031 14.6013 50.4827 14.5059 50.7964 14.5059H60.0112Z" stroke="white" stroke-opacity="0.2" stroke-width="0.233971"/>
</svg>
